<?xml version="1.0" encoding="UTF-8"?>
<svg id="Layer_1" xmlns="http://www.w3.org/2000/svg" xmlns:xlink="http://www.w3.org/1999/xlink" version="1.1" viewBox="0 0 344.87 109.82">
  <!-- Generator: Adobe Illustrator 29.3.0, SVG Export Plug-In . SVG Version: 2.1.0 Build 146)  -->
  <defs>
    <style>
      .st0, .st1 {
        fill: #caab7f;
      }

      .st0, .st2, .st3 {
        fill-rule: evenodd;
      }

      .st2 {
        fill: url(#linear-gradient);
      }

      .st3 {
        fill: url(#linear-gradient1);
      }
    </style>
    <linearGradient id="linear-gradient" x1="4.99" y1="54.53" x2="69.17" y2="54.53" gradientUnits="userSpaceOnUse">
      <stop offset="0" stop-color="#fff"/>
      <stop offset="0" stop-color="#be996d"/>
      <stop offset=".47" stop-color="#ecc595"/>
      <stop offset="1" stop-color="#caaa7f"/>
    </linearGradient>
    <linearGradient id="linear-gradient1" x1="95.33" y1="109.43" x2="82.07" y2="10.44" xlink:href="#linear-gradient"/>
  </defs>
  <g>
    <g>
      <path class="st1" d="M128.82,63.22c-.05-.54-.05-1.23-.05-1.79,0-.3-.02-.58-.02-.91,0-.25,0-.65-.02-.92-.03-.58-.03-1.23-.03-1.83l-.02-3.26,2.07.02c.54,0,1.12.05,1.66.05.55,0,1.11.07,1.64.07.53,0,1.09.1,1.62.1-.05-.39-.1-.58,0-.99-.44,0-.92.1-1.37.1-.17,0-.52.02-.69.04l-1.41.06c-.15,0-.56,0-.71.03-.23.03-.49-.01-.72.02-.2.03-1.8,0-2.09,0v-8.3c.76,0,1.5.02,2.24.02.26,0,4.23.05,4.45.08.28.03.81.02,1.11.02.35,0,.75.03,1.11.03-.09-.14-.41-.42-.55-.56-.11-.11-.17-.07-.49-.07-.21,0-.35.02-.55.02-.38,0-.71.02-1.09.02-.29,0-.82,0-1.1.03-.19.02-1.92.04-2.2.04-.75,0-1.46.02-2.22.02-.68,0-1.24-.01-1.93-.05-.23-.01-.49-.03-.74-.03-.27,0-.18-.17-.19.53,0,.49.04,1,.03,1.52,0,.48.03,1.02.03,1.52,0,1.02.03,2.03.03,3.06s.02,2.04.02,3.09v8.66c1.65-.02,3.27-.06,4.92-.05.63,0,1.25.04,1.85.03.58,0,1.28,0,1.83.05.29.02.63.02.92.02.39,0,.95.05,1.35.05.19,0,.2-.07.3-.18.08-.08.44-.41.47-.49l-7.18.15c-.79,0-1.5,0-2.29-.02Z"/>
      <path class="st1" d="M121.51,55.33c-.45-.37-.8-.67-1.37-.91-.27-.11-.52-.23-.83-.32-.2-.06-.72-.22-.93-.22v-.03c.19,0,.82-.27.99-.34.96-.43,1.6-1.03,2.08-1.97.68-1.34.38-3.25-.37-4.25-.78-1.04-1.96-1.6-3.52-1.86-.81-.13-1.61-.13-2.57-.13h-4.82c0,.6.08,1.2.08,1.81,0,.59.07,1.24.07,1.84,0,.63.03,1.24.03,1.88s.02,1.25.02,1.9v3.54c0,.64-.02,1.25-.02,1.88s-.04,1.24-.03,1.86c0,.59-.05,1.24-.07,1.83-.01.32-.02.61-.03.92-.01.29-.05.6-.05.91h6.37c1.77,0,3.35-.48,4.4-1.2,1.03-.7,1.92-1.96,1.92-3.69,0-.8-.11-1.5-.4-2.11-.23-.48-.57-1.01-.96-1.33ZM119.75,61.92c-.72.73-2.07,1.26-3.52,1.26h-3.81l-.1-9.07.09-8.32h2.76c1.54,0,2.57.21,3.46.88.79.59,1.37,1.61,1.37,2.98v.15c0,1.63-.86,2.86-1.97,3.38-1.27.59-2.14.5-3.51.5h-.37c-.08,0-.29-.03-.29.05v.43h1.94c1.66,0,2.78.32,3.72,1.04.84.65,1.51,1.79,1.52,3.26.01,1.67-.43,2.59-1.29,3.45Z"/>
      <path class="st1" d="M198.3,52.09c-.15-.7-.37-1.21-.62-1.81-.23-.55-.59-1.04-.91-1.5-.34-.49-.75-.86-1.16-1.27-.38-.39-.9-.73-1.37-1.04-.47-.32-1.06-.58-1.62-.81-1.08-.44-2.59-.72-4.12-.72-2.44,0-4.37.6-5.88,1.53-1.47.91-2.75,2.28-3.55,3.87-.39.79-.72,1.81-.85,2.86-.39,3.11.47,6.08,2.76,8.17.65.59,1.36,1.1,2.19,1.52.87.44,1.72.69,2.8.91,1.93.39,4.69.18,6.49-.54,3.57-1.43,6.06-4.62,6.06-8.78,0-.94-.07-1.56-.24-2.39ZM196.2,54.84c0,2.61-.88,4.74-2.09,6.15-1.26,1.47-3.01,2.52-5.74,2.52-3.62,0-6.27-2.39-7.27-5.39-.18-.53-.33-1.08-.44-1.68-.05-.31-.08-.6-.13-.93-.04-.32-.02-.66-.05-1.01-.05-.58.03-1.42.11-1.96.24-1.65.86-3.21,1.9-4.44,1.29-1.53,3.01-2.64,5.81-2.64s4.57,1.25,5.8,2.73c1.23,1.48,2.08,3.75,2.08,6.46v.2Z"/>
      <path class="st1" d="M157.32,47.13l.07,1.87c.07.56-.01,1.33.06,1.89.04.31-.02.67.02.96.03.25,0,.71,0,.99,0,2.59.03,5.21.03,7.79l-3.93-3.88c-1.45-1.45-11.73-11.65-11.78-11.65h-.31c0,1.56-.05,3.1-.05,4.66,0,1.12-.05,2.37-.05,3.49,0,.39.02.83-.01,1.18-.04.36.02.81-.02,1.16-.03.29-.02.86-.02,1.16,0,.78-.05,1.55-.05,2.32s-.07,1.53-.07,2.29c0,.75-.09,1.55-.09,2.29h1.06c0-.17-.02-.27-.02-.44,0-.1,0-.35-.02-.46-.06-.45-.09-2.22-.1-2.72-.02-1.21-.07-2.44-.07-3.69l.02-8.13,15.76,15.66.28-.05c0-3.13,0-6.26,0-9.39,0-1.53.02-3.11.05-4.63.01-.73.04-1.54.09-2.26.02-.38.03-.76.05-1.13.02-.37.05-.76.05-1.13h-1.08c0,.59.11,1.24.1,1.84Z"/>
      <path class="st1" d="M177.81,63.69c-1.6,0-2.46-1.27-3.07-2.3-.58-.99-1.18-2.48-1.8-3.56-.66-1.14-1.4-2.16-2.49-2.88-1.15-.76-2.35-1.12-4.25-1.12l1.11-1.1c.37-.37.73-.73,1.1-1.1.89-.9,6.63-6.48,6.66-6.6h-1.38l-8.5,9.05c.16.04.44.04.63.06.66.09,1.02.17,1.65.4.7.26,1.18.61,1.71,1.04.89.72,1.73,2.21,2.26,3.24.69,1.35,1.11,2.25,2.08,3.42.97,1.15,2.83,2.11,4.6,1.69.1-.02.26-.07.37-.1.13-.04.24-.1.36-.13l-.05-.17c-.29.15-.66.15-1.01.15Z"/>
      <path class="st1" d="M164.56,59.33c0-1.58-.03-3.16-.03-4.77v-9.62c-1.48.13-.85.1-2.36.02,0,1.12.07,2.36.07,3.5,0,.28,0,.91.03,1.17.04.35-.03.84.02,1.18.04.3,0,.86,0,1.19,0,.77.02,1.59.02,2.39v9.6c1.53-.12.91-.11,2.39-.01,0-.75-.09-1.52-.09-2.29,0-.77-.05-1.57-.05-2.36Z"/>
    </g>
    <path class="st0" d="M216.07,52.24c.04-.05.97-.62,1.11-.71.38-.24.72-.49,1.05-.76.57-.46,1.32-1.09,1.62-1.98.38-1.14.06-2.09-.53-2.77-.5-.57-1.48-.98-2.56-1.05-2.29-.15-4.07.79-4.41,2.78-.19,1.12.09,2.09.49,2.99.19.43.4.8.62,1.19.23.39.49.73.71,1.09-.1.14-2.74,1.66-3.58,3.54-.42.93-.63,1.85-.49,3.03.13,1.1.49,1.88,1.05,2.5.99,1.12,2.95,2.02,5.11,2.02,1.1,0,2.1-.18,3.02-.56.45-.19.78-.39,1.15-.62.43-.28.64-.53.97-.81.04.02.42.39.49.46.15.14.34.3.51.43.68.55,1.73,1.2,2.69,1.08.53-.07.99-.42,1.18-.73l-.18-.25c-.18.12-.49.77-1.15.46-.7-.33-1.7-1.58-2.21-2.21-.07-.09-.34-.41-.38-.49.06-.15.18-.34.27-.5.27-.52.48-1.11.62-1.69.22-.89.32-1.79.33-2.75h-.4c-.03,1.34-.15,2.44-.62,3.64-.07.18-.37.86-.47.94-.14-.23-1.28-1.77-1.5-2.08-.49-.7-1-1.39-1.5-2.07-.51-.68-1.01-1.39-1.53-2.04-.29-.36-.87-1.15-1.13-1.56-.09-.14-.25-.42-.35-.54M215.86,51.9c-.21-.26-.72-1.28-.87-1.62-.24-.55-.49-1.28-.52-1.97-.06-1.43.53-3.13,2.05-2.89,1.37.22,1.59,2.02,1.29,3.46-.14.7-.42,1.26-.74,1.75-.18.27-.36.47-.56.68-.09.1-.54.54-.65.58ZM221.12,61.84c-.08.13-.62.54-.8.67-.28.2-.58.37-.92.54-.67.33-1.47.55-2.31.61-.91.06-1.78-.02-2.52-.37-.67-.32-1.25-.78-1.6-1.3-.82-1.19-1.01-3.21-.69-4.87.23-1.2.73-2.08,1.44-2.94.13-.15.58-.64.73-.72.12.12.31.39.42.53l1.23,1.59c1.19,1.56,2.86,3.88,4.13,5.29.15.17.3.35.44.5.15.15.32.32.46.47Z"/>
    <g>
      <path class="st1" d="M271.68,47.18c.02.63.07,1.25.07,1.88,0,.61.06,1.25.05,1.9,0,.62.03,1.29.03,1.93,0,2.6.03,5.21.03,7.79-.11-.07-7.85-7.77-7.85-7.77-1.31-1.3-2.62-2.58-3.92-3.89-.35-.35-3.88-3.87-3.93-3.87h-.31c0,1.12-.06,2.39-.05,3.49,0,.35.03.84,0,1.18-.03.35-.02.78-.02,1.16,0,1.13-.05,2.38-.05,3.5,0,1.57-.09,3.1-.08,4.65,0,.75-.06,1.53-.07,2.29,0,.75-.09,1.53-.09,2.29h1.06c0-.6-.09-1.25-.09-1.86,0-.61-.07-1.28-.07-1.9,0-.65-.03-1.27-.03-1.93,0-.56.01-1.39-.03-1.93v-1.94c.06-.53.02-1.37.02-1.95,0-1.31.02-2.62.02-3.91.13.09,7.96,7.9,7.96,7.9l4.97,4.94c.33.33.64.67,1,.98.34.3,1.09,1.09,1.49,1.49.49.49.27.29.63.29v-9.64c0-.77.02-1.5.02-2.26s.04-1.5.03-2.26c0-.35.04-.74.03-1.11,0-.3.02-.81.05-1.1.04-.35,0-.76.05-1.1l.06-1.09h-1.08c0,.6.08,1.25.1,1.84Z"/>
      <path class="st1" d="M239.24,59.1c0-1.55-.03-3.12-.03-4.7v-9.47l-1.13.1-1.23-.08v.25c0,1.36.09,2.72.09,4.11,0,.72.03,1.46.03,2.2s.02,1.46.02,2.22v9.94c1.46-.1.96-.09,2.39,0,0-.74-.09-1.51-.09-2.27,0-.76-.05-1.53-.05-2.31Z"/>
      <path class="st1" d="M279.12,63.31c-.27,0-.19-.05-.19-.34,0-.19-.02-.33-.02-.51,0-.69-.05-1.4-.05-2.07,0-1.39-.05-2.76-.05-4.17v-1.62h1.35c.53,0,1.05.04,1.55.03.52,0,1.04.05,1.54.05l1.52.07c.24.03.5.03.75.06.31.04.28.03.27-.04-.06-.45-.04-.47,0-.94-.27,0-.92.09-1.24.1-.12,0-.31,0-.44.02-.2.03-1.45.07-1.73.08-.57.01-1.16.05-1.76.05s-1.19.02-1.81.02v-8.32c1.48,0,3.01.05,4.48.05s2.95.1,4.42.1c-.06-.09-.42-.43-.55-.56-.1-.1-.12-.07-.3-.07-.48,0-.97.03-1.45.03-.98,0-1.94.06-2.94.05-.44,0-1.01.04-1.45.04-.92,0-2.03.02-2.92-.03-.47-.03-.98-.05-1.45-.05,0,.8.07,1.67.07,2.48,0,.85.03,1.68.03,2.53,0,1.69.03,3.38.03,5.09v8.3l4.8-.07,6.17.16s.65-.6.67-.66c-.13.06-7.5.17-8.27.17-.33,0-.67-.02-1.03-.02Z"/>
      <path class="st1" d="M252.47,63.68c-.86,0-1.42-.38-1.9-.77-.44-.36-.84-1.02-1.15-1.53-.55-.92-1.2-2.55-1.8-3.56-.68-1.15-1.38-2.14-2.49-2.88-1.31-.87-2.58-1.12-4.25-1.12.1-.15.41-.4.55-.54.19-.18.37-.37.55-.56,1.15-1.15,7.74-7.62,7.76-7.7-.39,0-.79,0-1.18,0-.24,0-.13-.04-.38.2-.27.27-.59.64-.86.91l-1.15,1.23c-.08.1-.19.19-.28.3l-.86.92c-.55.55-1.19,1.3-1.73,1.83-.2.2-.37.41-.57.61l-2.29,2.44c-.14.14-.48.47-.58.62,1.76.15,3,.6,3.99,1.51.95.86,1.65,2.03,2.25,3.25.15.3.3.62.47.9.17.3.31.6.48.9.52.85.52.85,1.14,1.61.41.5.96.88,1.54,1.21.51.29,1.37.58,2.17.58.87,0,1.52-.33,1.62-.34l-.05-.17c-.32.15-.65.15-1.03.15Z"/>
      <path class="st1" d="M333.15,63.38l-2.55-.02c0-1.5-.1-3.01-.1-4.52,0-.75-.04-1.5-.03-2.27,0-.74-.02-1.54-.02-2.31v-9.26l-1.14.09c-.33,0-.74-.02-1.01-.09,0,.49.04.98.03,1.45,0,.25.01.5.02.72,0,.22-.02.54,0,.75.03.26.05,2.5.05,2.93,0,1.96.03,3.94.03,5.93v7.06l3.28-.1h2.7s4.78.23,4.78.23l.67-.67-6.72.1Z"/>
      <path class="st1" d="M306.82,59.55c0-1.53-.03-3.04-.03-4.58v-9.72c-.53.05-.75.09-1.28.07l-.84-.06c0,1.37.09,2.74.09,4.13,0,1.48.03,2.98.03,4.49h-10.85v-8.63c-.6.05-.86.1-1.47.07l-.89-.06c0,1.12.07,2.33.07,3.46,0,1.94.07,3.91.07,5.86v9.47l1.23-.1,1.16.09c0-.7-.09-1.44-.09-2.16,0-.73-.05-1.47-.05-2.2,0-1.71-.03-3.44-.03-5.18l5.89-.08h4.96v9.63c.29,0,.61-.09,1.08-.09.51,0,.78.08,1.08.09,0-.74-.07-1.47-.07-2.24,0-.72-.05-1.52-.05-2.25Z"/>
      <path class="st1" d="M309.59,45.13c0,.09.07.15.07.27,0,.14-.07.22-.07.34,2.36,0,4.78-.19,7.16-.19l.14,8.53v9.62c1.36-.1.91-.09,2.26,0-.03-.33-.05-.77-.05-1.11,0-.38-.03-.75-.03-1.13,0-.76-.05-1.53-.05-2.29,0-1.55-.03-3.08-.03-4.65v-8.97c1.31,0,2.59.03,3.88.03.62,0,1.27.03,1.9.05.12,0,.33,0,.46.02.18.02.19-.04.3-.16.08-.08.46-.43.48-.51-5.14.11-10.12.21-15.27.19-.36,0-.77-.05-1.13-.05Z"/>
    </g>
  </g>
  <g>
    <path class="st2" d="M42.95,100.64c5.57-.59,10.92-2.15,15.5-4.89,5.15-3.09,9.62-8.41,10.54-16.7,1.01-9.14-2.54-15.84-7.1-19.89-4.77-4.24-13.14-7.06-19.56-7.62,8.92-2.1,17.57-5.38,20.46-15,.97-3.21,1.19-7.06.58-10.53-1.76-10.16-9.8-15.03-18.62-16.9-6.06-1.29-10.93-1.09-16.95-1.09H4.99v92.96h20.87c5.74,0,11.38.25,17.09-.35M36.25,100c-.12.05-23.06.25-24.08.05l-.03-90.95c6.12-.02,12.29-.1,18.42-.06,10.34.06,20.54,1.51,24.41,12.97,1.08,3.19,1.44,6.56,1.17,10.17-.55,7.24-3.96,12.03-8.03,14.92-5.34,3.79-11.07,4.27-18.72,4.27l-.02.57c9.14,0,15.38-.03,22.23,4.32,4.98,3.16,8.95,8.36,9.89,16.65.73,6.47-1.1,15.58-6.16,20.07-6.09,5.39-10.76,6.73-19.07,7.02Z"/>
    <path class="st3" d="M121.4,100.22c-.76,0-6.02,1.87-11.8-.78-7.8-3.59-12.61-14.22-16.1-22-2.81-6.27-5-10.88-9.09-16.31-2.65-3.51-5.03-6.12-8.79-7.87-.08-.04-.16-.08-.24-.11-2.63-1.17-5.92-1.94-10.41-2.29-.74-.07-1.43-.12-2-.14,46.96-42.63,8.17-7.49,46.95-42.69l-6.15-.02s-.03.03-.05.05c-.92.9-1.81,1.75-2.65,2.57-39.12,37.96.94-.89-41.72,40.51,3.03,0,6.57,1.12,9.43,2.99.07.05.14.09.17.12,3.72,2.74,6.71,6.78,9.18,10.85,1.6,2.64,3.23,5.75,4.62,8.71,1.37,2.93,2.81,6.19,4.35,8.98,3.43,6.23,6.79,11.52,11.76,14.97,5.92,4.12,15.85,5.16,22.65,2.85l-.11-.4Z"/>
  </g>
</svg>